<svg width="14" height="14" viewBox="0 0 14 14" fill="none" xmlns="http://www.w3.org/2000/svg">
<g id="edit" clip-path="url(#clip0_40_11389)">
<path id="Vector" d="M6.41016 2.97656H2.61849C2.33117 2.97656 2.05562 3.0907 1.85246 3.29386C1.64929 3.49703 1.53516 3.77258 1.53516 4.0599V11.6432C1.53516 11.9305 1.64929 12.2061 1.85246 12.4093C2.05562 12.6124 2.33117 12.7266 2.61849 12.7266H10.2018C10.4891 12.7266 10.7647 12.6124 10.9679 12.4093C11.171 12.2061 11.2852 11.9305 11.2852 11.6432V7.85156" stroke="currentColor" stroke-linecap="round" stroke-linejoin="round"/>
<path id="Vector_2" d="M10.4727 2.16467C10.6881 1.94919 10.9804 1.82812 11.2852 1.82812C11.5899 1.82813 11.8822 1.94919 12.0977 2.16467C12.3131 2.38016 12.4342 2.67243 12.4342 2.97717C12.4342 3.28192 12.3131 3.57418 12.0977 3.78967L6.95182 8.93551L4.78516 9.47717L5.32682 7.31051L10.4727 2.16467Z" stroke="currentColor" stroke-linecap="round" stroke-linejoin="round"/>
</g>
<defs>
<clipPath id="clip0_40_11389">
<rect width="13" height="13" fill="white" transform="translate(0.453125 0.8125)"/>
</clipPath>
</defs>
</svg>
