<svg width="20" height="20" viewBox="0 0 20 20" fill="none" xmlns="http://www.w3.org/2000/svg">
<g id="help-circle">
<path id="Vector" d="M9.88249 18.2318C14.2547 18.2318 17.7992 14.6874 17.7992 10.3151C17.7992 5.94285 14.2547 2.39844 9.88249 2.39844C5.51023 2.39844 1.96582 5.94285 1.96582 10.3151C1.96582 14.6874 5.51023 18.2318 9.88249 18.2318Z" stroke="currentColor" stroke-width="1.5" stroke-linecap="round" stroke-linejoin="round"/>
<path id="Vector_2" d="M7.5791 7.93844C7.76523 7.40934 8.1326 6.96319 8.61615 6.679C9.0997 6.39482 9.66823 6.29093 10.221 6.38575C10.7738 6.48057 11.2752 6.76798 11.6365 7.19707C11.9977 7.62615 12.1954 8.16923 12.1945 8.73011C12.1945 10.3134 9.81952 11.1051 9.81952 11.1051" stroke="currentColor" stroke-width="1.5" stroke-linecap="round" stroke-linejoin="round"/>
<path id="Vector_3" d="M9.88281 14.2734H9.8901" stroke="currentColor" stroke-width="1.5" stroke-linecap="round" stroke-linejoin="round"/>
</g>
</svg>
