<svg xmlns="http://www.w3.org/2000/svg" width="119" height="120" viewBox="0 0 119 120" fill="none">
  <g filter="url(#filter0_d_40_9188)">
    <path d="M59.3828 34.9375C47.6528 34.9375 38.1328 44.4575 38.1328 56.1875C38.1328 67.9175 47.6528 77.4375 59.3828 77.4375C71.1128 77.4375 80.6328 67.9175 80.6328 56.1875C80.6328 44.4575 71.1128 34.9375 59.3828 34.9375ZM59.3828 66.8125C58.2141 66.8125 57.2578 65.8563 57.2578 64.6875V56.1875C57.2578 55.0187 58.2141 54.0625 59.3828 54.0625C60.5516 54.0625 61.5078 55.0187 61.5078 56.1875V64.6875C61.5078 65.8563 60.5516 66.8125 59.3828 66.8125ZM61.5078 49.8125H57.2578V45.5625H61.5078V49.8125Z" fill="#3377FF"/>
  </g>
  <rect x="57.2422" y="45.5312" width="4.28125" height="4.28125" fill="white"/>
  <rect x="57.2422" y="54.0938" width="4.28125" height="12.75" rx="2.14062" fill="white"/>
  <defs>
    <filter id="filter0_d_40_9188" x="0.132812" y="0.9375" width="118.5" height="118.5" filterUnits="userSpaceOnUse" color-interpolation-filters="sRGB">
      <feFlood flood-opacity="0" result="BackgroundImageFix"/>
      <feColorMatrix in="SourceAlpha" type="matrix" values="0 0 0 0 0 0 0 0 0 0 0 0 0 0 0 0 0 0 127 0" result="hardAlpha"/>
      <feOffset dy="4"/>
      <feGaussianBlur stdDeviation="19"/>
      <feComposite in2="hardAlpha" operator="out"/>
      <feColorMatrix type="matrix" values="0 0 0 0 0.154167 0 0 0 0 0.594 0 0 0 0 1 0 0 0 0.3 0"/>
      <feBlend mode="normal" in2="BackgroundImageFix" result="effect1_dropShadow_40_9188"/>
      <feBlend mode="normal" in="SourceGraphic" in2="effect1_dropShadow_40_9188" result="shape"/>
    </filter>
  </defs>
</svg>