<svg width="18" height="19" viewBox="0 0 18 19" fill="none" xmlns="http://www.w3.org/2000/svg">
  <g clip-path="url(#clip0_218_4841)">
    <g clip-path="url(#clip1_218_4841)">
      <path d="M10.2249 3.89513C10.4835 3.3557 10.8196 2.89852 11.274 2.54535C12.3957 1.66968 13.6431 1.44714 14.9702 1.95754C16.3095 2.47278 17.1072 3.48391 17.3369 4.899C17.5907 6.46649 16.7905 8.01463 15.3812 8.75725C15.2724 8.81531 15.2362 8.87578 15.2362 8.99915C15.241 10.4602 15.2362 11.9237 15.241 13.3847C15.2434 13.6992 15.1129 13.8951 14.83 14.0209C12.9324 14.8797 11.0371 15.7408 9.14188 16.6068C8.91706 16.7108 8.71641 16.7132 8.48918 16.6092C6.59152 15.7408 4.68902 14.8772 2.78652 14.0185C2.50852 13.8927 2.38281 13.6992 2.38281 13.3944C2.38765 11.1351 2.38765 8.87578 2.38281 6.61647C2.38281 6.31893 2.50127 6.123 2.77201 5.99963C4.67935 5.13606 6.58668 4.27007 8.48918 3.39924C8.70916 3.29765 8.90739 3.29039 9.12737 3.39682C9.48273 3.56857 9.84534 3.72338 10.2249 3.89513ZM8.26919 15.3272C8.27161 15.2812 8.27645 15.2522 8.27645 15.2256C8.27645 13.3726 8.27645 11.5221 8.27886 9.6692C8.27886 9.55551 8.22568 9.51922 8.13865 9.4781C6.93237 8.93142 5.72608 8.38231 4.5198 7.83321C4.17169 7.67597 3.82359 7.51874 3.46339 7.35667C3.46098 7.40505 3.45614 7.43166 3.45614 7.45827C3.45614 9.31119 3.45614 11.1617 3.45372 13.0146C3.45372 13.1162 3.4924 13.1573 3.57943 13.1961C4.79055 13.7452 6.00167 14.2967 7.21279 14.8482C7.56089 15.0103 7.909 15.1651 8.26919 15.3272ZM9.34736 15.3272C9.41021 15.3005 9.45614 15.2836 9.49965 15.2643C11.0154 14.5749 12.5287 13.8855 14.0468 13.2009C14.1459 13.1549 14.1701 13.1017 14.1701 13.0001C14.1677 11.7737 14.1677 10.5473 14.1677 9.31845C14.1677 9.27007 14.1628 9.22169 14.1604 9.16847C14.1266 9.16847 14.1048 9.16606 14.0831 9.16847C13.191 9.27975 12.3691 9.08139 11.6076 8.60728C11.5593 8.57825 11.4674 8.5855 11.4118 8.60969C10.7712 8.89513 10.1354 9.19025 9.49482 9.47568C9.3812 9.52648 9.34494 9.58454 9.34494 9.71032C9.34977 11.5221 9.34736 13.3364 9.34736 15.1482C9.34736 15.2014 9.34736 15.257 9.34736 15.3272ZM16.3095 5.44811C16.3095 3.97496 15.108 2.77515 13.6383 2.77273C12.1588 2.77031 10.9549 3.97496 10.9549 5.45294C10.9549 6.92368 12.1564 8.12832 13.6262 8.12832C15.1056 8.13074 16.3119 6.92609 16.3095 5.44811ZM10.6721 7.76789C10.66 7.73887 10.6576 7.72677 10.6503 7.7171C10.0629 6.92126 9.79699 6.03591 9.91303 5.04656C9.9227 4.95706 9.88644 4.91835 9.8115 4.88449C9.52141 4.75628 9.23616 4.61598 8.94365 4.49503C8.86871 4.46359 8.75509 4.46117 8.68257 4.49503C7.25147 5.13848 5.82278 5.7916 4.39409 6.4423C4.34816 6.46407 4.30223 6.49068 4.25147 6.51729C4.27322 6.53664 4.27806 6.54632 4.28773 6.55115C5.76718 7.22363 7.24663 7.89852 8.7285 8.56857C8.77202 8.58792 8.8397 8.59518 8.88322 8.57583C9.4779 8.31216 10.0702 8.04124 10.6721 7.76789Z" fill="currentColor"/>
      <path d="M13.4295 5.5804C13.6954 4.91519 13.942 4.29593 14.1934 3.6791C14.3118 3.3864 14.5753 3.24852 14.8461 3.32593C15.17 3.42027 15.3199 3.73957 15.1869 4.07339C14.9234 4.74102 14.6551 5.40866 14.3892 6.07387C14.3094 6.27464 14.2297 6.47784 14.145 6.67861C13.971 7.09467 13.5455 7.18418 13.2288 6.86971C12.888 6.53347 12.5496 6.1924 12.2111 5.85133C11.9766 5.61427 11.967 5.29496 12.1797 5.07484C12.3973 4.84987 12.726 4.85713 12.9678 5.09661C13.1152 5.24658 13.2579 5.4014 13.4295 5.5804Z" fill="currentColor"/>
    </g>
  </g>
  <defs>
    <clipPath id="clip0_218_4841">
      <rect width="17" height="18" fill="white" transform="translate(0.882812 0.1875)"/>
    </clipPath>
    <clipPath id="clip1_218_4841">
      <rect width="15" height="15" fill="white" transform="translate(2.38281 1.6875)"/>
    </clipPath>
  </defs>
</svg>
