<svg width="22" height="22" viewBox="0 0 22 22" fill="none" xmlns="http://www.w3.org/2000/svg">
<g id="Frame 1000004417">
<g id="Group 37836">
<path id="Vector" d="M14.7087 11.0475C14.1196 11.0475 13.642 10.5699 13.642 9.98076C13.642 9.39164 14.1196 8.91406 14.7087 8.91406C15.2978 8.91406 15.7754 9.39164 15.7754 9.98076C15.7754 10.5699 15.2978 11.0475 14.7087 11.0475Z" fill="currentColor"/>
<path id="Vector_2" d="M10.8835 11.0475C10.2944 11.0475 9.81679 10.5699 9.81679 9.98076C9.81679 9.39164 10.2944 8.91406 10.8835 8.91406C11.4726 8.91406 11.9502 9.39164 11.9502 9.98076C11.9502 10.5699 11.4726 11.0475 10.8835 11.0475Z" fill="currentColor"/>
<path id="Vector_3" d="M7.05634 11.0475C6.46722 11.0475 5.98964 10.5699 5.98964 9.98076C5.98964 9.39164 6.46722 8.91406 7.05634 8.91406C7.64547 8.91406 8.12305 9.39164 8.12305 9.98076C8.12305 10.5699 7.64547 11.0475 7.05634 11.0475Z" fill="currentColor"/>
<path id="Vector_4" d="M3.12996 19.2619C3.36637 19.2622 3.59567 19.1811 3.77936 19.0323L6.1424 17.1409C6.38085 16.9506 6.67688 16.847 6.98194 16.8471H16.8588C17.229 16.848 17.5958 16.776 17.9381 16.6352C18.2805 16.4944 18.5917 16.2874 18.854 16.0262C19.1164 15.765 19.3247 15.4547 19.467 15.113C19.6093 14.7712 19.6829 14.4048 19.6836 14.0346V6.18991C19.6829 5.44355 19.3862 4.72795 18.8584 4.20019C18.3306 3.67243 17.615 3.37565 16.8687 3.375H4.89792C4.15156 3.37565 3.43595 3.67243 2.9082 4.20019C2.38044 4.72795 2.08366 5.44355 2.08301 6.18991V18.2175C2.08366 18.4947 2.19425 18.7604 2.39052 18.9562C2.58679 19.152 2.85271 19.2619 3.12996 19.2619ZM16.8687 5.14543C17.1433 5.14543 17.4067 5.25435 17.6011 5.44831C17.7956 5.64226 17.9051 5.90541 17.9058 6.18003V14.0346C17.9051 14.3092 17.7956 14.5724 17.6011 14.7663C17.4067 14.9603 17.1433 15.0692 16.8687 15.0692H6.99181C6.27941 15.0723 5.58912 15.3169 5.03372 15.7631L3.86084 16.7014V6.18991C3.85987 6.0531 3.88597 5.91744 3.93765 5.79076C3.98933 5.66408 4.06557 5.54888 4.16196 5.4518C4.25836 5.35471 4.37302 5.27765 4.49933 5.22507C4.62564 5.17249 4.7611 5.14543 4.89792 5.14543H16.8687Z" fill="currentColor"/>
</g>
</g>
</svg>
