<svg width="22" height="22" viewBox="0 0 22 22" fill="none" xmlns="http://www.w3.org/2000/svg">
<g id="notifications-none">
<path id="Vector" d="M17.262 15.9413L16.1333 14.8125V10.4375C16.1333 7.75125 14.6983 5.5025 12.1958 4.9075V4.3125C12.1958 3.58625 11.6095 3 10.8833 3C10.157 3 9.57078 3.58625 9.57078 4.3125V4.9075C7.05954 5.5025 5.63328 7.7425 5.63328 10.4375V14.8125L4.50453 15.9413C3.95328 16.4925 4.33828 17.4375 5.11703 17.4375H16.6408C17.4283 17.4375 17.8133 16.4925 17.262 15.9413ZM14.3833 15.6875H7.38328V10.4375C7.38328 8.2675 8.70454 6.5 10.8833 6.5C13.062 6.5 14.3833 8.2675 14.3833 10.4375V15.6875ZM10.8833 20.0625C11.8458 20.0625 12.6333 19.275 12.6333 18.3125H9.13328C9.13328 19.275 9.91203 20.0625 10.8833 20.0625Z" fill="currentColor"/>
</g>
</svg>
