<svg width="17" height="18" viewBox="0 0 17 18" fill="none" xmlns="http://www.w3.org/2000/svg">
<g clip-path="url(#clip0_802_6742)">
<path d="M6.59682 0.8125C6.83615 0.872794 7.08162 0.910478 7.31174 0.99489C8.4946 1.4275 9.24021 2.48718 9.25556 3.74431C9.26016 4.05332 9.25556 4.36233 9.25556 4.68641C10.0595 4.68641 10.845 4.68641 11.6504 4.68641C11.7486 6.33848 11.8468 7.97547 11.9434 9.60342C12.2595 9.62754 12.5633 9.63357 12.8609 9.67577C14.7249 9.93805 16.2161 11.5027 16.3665 13.3432C16.546 15.5364 15.044 17.4387 12.8287 17.7612C11.3605 17.9753 10.1116 17.5005 9.10367 16.4287C9.02389 16.3428 8.94872 16.3066 8.83059 16.3066C6.88831 16.3097 4.9445 16.3142 3.00222 16.3066C1.95438 16.3036 1.16887 15.8424 0.664127 14.938C0.450876 14.5566 0.360359 14.1391 0.383372 13.7065C0.461615 12.3152 0.549064 10.9239 0.63191 9.53107C0.704016 8.31614 0.774589 7.1012 0.846695 5.88627C0.869708 5.49436 0.894255 5.10395 0.918802 4.69244C1.71658 4.69244 2.50668 4.69244 3.3152 4.69244C3.3152 4.35781 3.31059 4.04428 3.31673 3.73075C3.33207 2.79468 3.70795 2.02743 4.44896 1.43956C4.86472 1.11397 5.33878 0.918015 5.86194 0.842647C5.89416 0.838125 5.92331 0.823052 5.95399 0.8125C6.16878 0.8125 6.38203 0.8125 6.59682 0.8125ZM3.32287 5.70087C2.82579 5.70087 2.35633 5.70087 1.8838 5.70087C1.87767 5.73554 1.87153 5.75664 1.87153 5.77774C1.79022 7.15848 1.70891 8.53772 1.62759 9.91846C1.55549 11.1334 1.49412 12.3483 1.40821 13.5617C1.33457 14.5913 1.99733 15.3133 3.04978 15.3133C4.75579 15.3148 6.46181 15.3133 8.16782 15.3133C8.22765 15.3133 8.28749 15.3133 8.34272 15.3133C8.35039 15.2832 8.35652 15.2711 8.35499 15.262C8.34118 15.2153 8.32431 15.1671 8.30743 15.1204C8.0681 14.4737 7.98065 13.8074 8.09878 13.1291C8.37493 11.5434 9.28624 10.4536 10.8112 9.86721C10.9171 9.82651 10.9401 9.77978 10.934 9.67427C10.868 8.60856 10.8081 7.54286 10.7468 6.47716C10.7314 6.21789 10.713 5.96013 10.6946 5.69634C10.2114 5.69634 9.74189 5.69634 9.25402 5.69634C9.25402 6.10785 9.25402 6.50881 9.25402 6.91429C8.9073 6.91429 8.58051 6.91429 8.23532 6.91429C8.23532 6.49977 8.23532 6.09881 8.23532 5.69936C6.92666 5.69936 5.63488 5.69936 4.32776 5.69936C4.32776 6.11388 4.32776 6.51484 4.32776 6.91881C3.98717 6.91881 3.66346 6.91881 3.32287 6.91881C3.32287 6.51183 3.32287 6.11087 3.32287 5.70087ZM12.2257 16.8161C13.9578 16.8146 15.3754 15.4218 15.3769 13.72C15.3785 12.0137 13.9502 10.6103 12.2165 10.6149C10.4829 10.6194 9.06839 12.0107 9.06532 13.7125C9.06378 15.4233 10.4844 16.8176 12.2257 16.8161ZM8.24146 4.6834C8.24146 4.34274 8.25066 4.01715 8.23993 3.69306C8.21078 2.84141 7.65387 2.12541 6.84842 1.89026C6.03224 1.6521 5.16849 1.95809 4.67755 2.64394C4.22804 3.271 4.3523 3.98097 4.33696 4.6834C5.64102 4.6834 6.9282 4.6834 8.24146 4.6834Z" fill="currentColor"/>
<path d="M10.0234 13.7158C10.2812 13.4912 10.5251 13.2787 10.7829 13.0556C11.0882 13.3947 11.3889 13.7279 11.7034 14.0761C12.3416 13.4279 12.9691 12.7888 13.6073 12.1406C13.8359 12.3878 14.0583 12.6275 14.2915 12.8777C13.4462 13.7369 12.5656 14.6338 11.6712 15.5442C11.1173 14.9307 10.5773 14.3323 10.0234 13.7158Z" fill="currentColor"/>
</g>
<defs>
<clipPath id="clip0_802_6742">
<rect width="16" height="17" fill="white" transform="translate(0.382812 0.8125)"/>
</clipPath>
</defs>
</svg>
