<svg width="37" height="37" viewBox="0 0 37 37" fill="none" xmlns="http://www.w3.org/2000/svg">
<g id="Standard Collection 3">
<g id="Clip path group">
<mask id="mask0_1701_21515" style="mask-type:luminance" maskUnits="userSpaceOnUse" x="0" y="0" width="37" height="37">
<g id="clip0">
<path id="Vector" d="M0.52002 0.609375H36.0195V36.1089H0.52002V0.609375Z" fill="white"/>
</g>
</mask>
<g mask="url(#mask0_1701_21515)">
<g id="Group">
<path id="Vector_2" d="M32.545 16.1764C32.6891 15.6385 32.6892 15.0721 32.545 14.5341C32.4009 13.9962 32.1177 13.5056 31.7238 13.1118L23.5173 4.90526C23.1235 4.51143 22.6329 4.22821 22.095 4.08407C21.557 3.93993 20.9906 3.93995 20.4527 4.08413L12.7734 6.14178C12.6935 5.08975 12.3272 4.07962 11.7142 3.22082L20.9634 0.742772C21.6272 0.564906 22.3262 0.564909 22.9901 0.742784C23.654 0.920659 24.2593 1.27014 24.7453 1.7561L34.8728 11.8836C35.3588 12.3696 35.7082 12.9749 35.8861 13.6388C36.064 14.3027 36.064 15.0017 35.8861 15.6655L33.3128 25.2694C32.4715 24.627 31.47 24.228 30.4174 24.1161L32.545 16.1764Z" fill="white"/>
<path id="Vector_3" d="M6.19283 12.3334L3.99422 20.5384C3.84998 21.0765 3.85017 21.6429 3.99422 22.1807C4.13845 22.7188 4.42173 23.2093 4.81554 23.6031L13.0221 31.8098C13.4159 32.2036 13.9064 32.4867 14.4444 32.6309C14.9823 32.775 15.5489 32.775 16.0867 32.6309L24.0264 30.5034C24.1382 31.556 24.5372 32.5576 25.1797 33.3987L15.5758 35.9721C14.912 36.15 14.213 36.15 13.5492 35.9721C12.8852 35.7942 12.2799 35.4448 11.7939 34.9588L1.66638 24.8313C1.18032 24.3452 0.830992 23.74 0.653053 23.076C0.475115 22.4122 0.475115 21.7131 0.653053 21.0493L3.32348 11.0859C4.14692 11.758 5.13984 12.1897 6.19283 12.3334Z" fill="white"/>
<path id="Vector_4" d="M33.0831 26.5943C33.7336 27.2447 34.1765 28.0735 34.3559 28.9755C34.5354 29.8777 34.4433 30.8129 34.0913 31.6627C33.7393 32.5123 33.1432 33.2387 32.3784 33.7498C31.6136 34.2607 30.7145 34.5336 29.7946 34.5336C28.8748 34.5336 27.9757 34.2607 27.2109 33.7498C26.4461 33.2387 25.85 32.5123 25.498 31.6627C25.146 30.8129 25.0539 29.8777 25.2333 28.9755C25.4128 28.0735 25.8557 27.2447 26.5061 26.5943C27.379 25.7235 28.5616 25.2344 29.7946 25.2344C31.0276 25.2344 32.2103 25.7235 33.0831 26.5943Z" fill="white"/>
<path id="Vector_5" d="M10.2746 3.30528C10.9249 3.95568 11.368 4.78435 11.5473 5.6865C11.7268 6.58863 11.6347 7.52374 11.2827 8.37355C10.9307 9.22334 10.3347 9.94969 9.56997 10.4607C8.80507 10.9717 7.90593 11.2445 6.9862 11.2445C6.06627 11.2445 5.16714 10.9717 4.40224 10.4607C3.63753 9.94969 3.04151 9.22334 2.68949 8.37355C2.33746 7.52374 2.24541 6.58863 2.42489 5.6865C2.60417 4.78435 3.04729 3.95568 3.69761 3.30528C4.57036 2.4344 5.75315 1.94531 6.9862 1.94531C8.21906 1.94531 9.40185 2.4344 10.2746 3.30528Z" fill="white"/>
<path id="Vector_6" d="M15.5405 30.6862C15.7273 30.6862 15.9131 30.6618 16.0936 30.6134L23.3613 28.6659C23.6036 27.3718 24.2315 26.1811 25.1624 25.2502C26.0934 24.3193 27.284 23.6914 28.5781 23.4491L30.5255 16.1819C30.622 15.8194 30.6217 15.438 30.5246 15.0756C30.4275 14.7133 30.237 14.3828 29.9722 14.1171L22.5126 6.6574C22.2473 6.39203 21.9168 6.20121 21.5543 6.10407C21.1918 6.00696 20.8101 6.00698 20.4477 6.10413L13.3837 7.99694C13.1035 9.28303 12.4414 10.4545 11.4841 11.3579C10.5268 12.2613 9.31899 12.8546 8.01892 13.0599L6.01615 20.536C5.91967 20.8986 5.91987 21.2801 6.01712 21.6424C6.11417 22.0048 6.30463 22.3352 6.56961 22.601L14.0292 30.0606C14.2271 30.2595 14.4628 30.4174 14.7222 30.5247C14.9816 30.6321 15.2597 30.687 15.5405 30.6862Z" fill="white"/>
</g>
</g>
</g>
</g>
</svg>
