<svg width="33" height="33" viewBox="0 0 33 33" fill="none" xmlns="http://www.w3.org/2000/svg">
<g id="Standard Collection 3">
<g id="Clip path group">
<mask id="mask0_951_7301" style="mask-type:luminance" maskUnits="userSpaceOnUse" x="0" y="0" width="33" height="33">
<g id="clip0">
<path id="Vector" d="M0.383301 0.6875H32.1992V32.5034H0.383301V0.6875Z" fill="white"/>
</g>
</mask>
<g mask="url(#mask0_951_7301)">
<g id="Group">
<path id="Vector_2" d="M29.0852 14.6393C29.2144 14.1571 29.2144 13.6495 29.0852 13.1673C28.9561 12.6852 28.7022 12.2456 28.3493 11.8926L20.9943 4.53763C20.6413 4.18466 20.2017 3.93083 19.7196 3.80164C19.2374 3.67246 18.7298 3.67247 18.2476 3.80169L11.3652 5.64584C11.2936 4.70297 10.9653 3.79766 10.4159 3.02796L18.7054 0.807055C19.3003 0.647645 19.9268 0.647648 20.5218 0.807066C21.1168 0.966483 21.6593 1.2797 22.0949 1.71523L31.1715 10.7918C31.607 11.2274 31.9202 11.7699 32.0797 12.3649C32.2391 12.9599 32.2391 13.5864 32.0797 14.1814L29.7733 22.7887C29.0194 22.2129 28.1217 21.8553 27.1784 21.755L29.0852 14.6393Z" fill="#18CDCA"/>
<path id="Vector_3" d="M5.46769 11.1962L3.49721 18.5498C3.36793 19.032 3.36811 19.5396 3.49721 20.0217C3.62648 20.5039 3.88036 20.9435 4.23331 21.2964L11.5883 28.6516C11.9413 29.0045 12.3809 29.2583 12.8631 29.3875C13.3451 29.5166 13.8529 29.5166 14.3349 29.3875L21.4507 27.4807C21.551 28.4241 21.9085 29.3218 22.4844 30.0756L13.877 32.382C13.2821 32.5415 12.6556 32.5415 12.0607 32.382C11.4656 32.2225 10.9231 31.9094 10.4875 31.4738L1.41092 22.3972C0.975294 21.9616 0.662214 21.4191 0.502739 20.824C0.343264 20.2291 0.343264 19.6026 0.502739 19.0077L2.89607 10.0781C3.63407 10.6805 4.52395 11.0674 5.46769 11.1962Z" fill="#18CDCA"/>
<path id="Vector_4" d="M29.5663 23.9767C30.1492 24.5595 30.5462 25.3023 30.707 26.1108C30.8678 26.9193 30.7853 27.7575 30.4698 28.5191C30.1544 29.2806 29.6201 29.9316 28.9347 30.3896C28.2492 30.8475 27.4434 31.0921 26.619 31.0921C25.7946 31.0921 24.9888 30.8475 24.3033 30.3896C23.6179 29.9316 23.0837 29.2806 22.7682 28.5191C22.4527 27.7575 22.3702 26.9193 22.531 26.1108C22.6918 25.3023 23.0888 24.5595 23.6717 23.9767C24.454 23.1962 25.514 22.7578 26.619 22.7578C27.7241 22.7578 28.784 23.1962 29.5663 23.9767Z" fill="white"/>
<path id="Vector_5" d="M9.12688 3.10557C9.70972 3.68848 10.1069 4.43116 10.2675 5.2397C10.4284 6.04823 10.3459 6.8863 10.0304 7.64793C9.7149 8.40954 9.18072 9.06052 8.49536 9.51851C7.80983 9.97652 7.004 10.221 6.1797 10.221C5.35523 10.221 4.5494 9.97652 3.86386 9.51851C3.1785 9.06052 2.64433 8.40954 2.32883 7.64793C2.01333 6.8863 1.93083 6.04823 2.09169 5.2397C2.25237 4.43116 2.64951 3.68848 3.23235 3.10557C4.01453 2.32506 5.07459 1.88672 6.1797 1.88672C7.28463 1.88672 8.34469 2.32506 9.12688 3.10557Z" fill="white"/>
<path id="Vector_6" d="M13.8451 27.6435C14.0125 27.6435 14.179 27.6216 14.3408 27.5783L20.8544 25.8329C21.0716 24.6731 21.6342 23.6059 22.4686 22.7716C23.303 21.9373 24.3701 21.3745 25.5299 21.1574L27.2751 14.6443C27.3617 14.3194 27.3614 13.9775 27.2744 13.6528C27.1874 13.328 27.0166 13.0318 26.7793 12.7937L20.0938 6.10805C19.8559 5.87022 19.5597 5.6992 19.2349 5.61214C18.91 5.5251 18.5679 5.52512 18.2431 5.61219L11.912 7.3086C11.6609 8.46123 11.0676 9.51114 10.2096 10.3208C9.35165 11.1305 8.26915 11.6622 7.10398 11.8462L5.30903 18.5466C5.22256 18.8716 5.22274 19.2135 5.30989 19.5381C5.39688 19.8629 5.56757 20.1591 5.80506 20.3973L12.4906 27.0828C12.668 27.2611 12.8793 27.4026 13.1117 27.4987C13.3442 27.595 13.5934 27.6442 13.8451 27.6435Z" fill="white"/>
</g>
</g>
</g>
</g>
</svg>
