<svg width="16" height="17" viewBox="0 0 16 17" fill="none" xmlns="http://www.w3.org/2000/svg">
<g id="people-outline">
<path id="Vector" d="M5.79946 8.64126C7.21483 8.64126 8.36619 7.4899 8.36619 6.07454C8.36619 4.65917 7.21483 3.50781 5.79946 3.50781C4.3841 3.50781 3.23274 4.65917 3.23274 6.07454C3.23274 7.4899 4.3841 8.64126 5.79946 8.64126ZM5.79946 4.97451C6.40814 4.97451 6.89949 5.46586 6.89949 6.07454C6.89949 6.68322 6.40814 7.17456 5.79946 7.17456C5.19078 7.17456 4.69944 6.68322 4.69944 6.07454C4.69944 5.46586 5.19078 4.97451 5.79946 4.97451ZM5.79946 9.92462C4.08342 9.92462 0.666016 10.7826 0.666016 12.4913V13.0414C0.666016 13.4447 0.996023 13.7747 1.39937 13.7747H10.1996C10.6029 13.7747 10.9329 13.4447 10.9329 13.0414V12.4913C10.9329 10.7826 7.5155 9.92462 5.79946 9.92462ZM2.38205 12.308C2.99807 11.8827 4.48677 11.3913 5.79946 11.3913C7.11216 11.3913 8.60086 11.8827 9.21687 12.308H2.38205ZM10.9622 9.96862C11.8129 10.5846 12.3996 11.406 12.3996 12.4913V13.7747H14.5997C15.003 13.7747 15.333 13.4447 15.333 13.0414V12.4913C15.333 11.01 12.7663 10.1666 10.9622 9.96862ZM10.1996 8.64126C11.6149 8.64126 12.7663 7.4899 12.7663 6.07454C12.7663 4.65917 11.6149 3.50781 10.1996 3.50781C9.80355 3.50781 9.43688 3.60315 9.09954 3.76448C9.56155 4.41717 9.83289 5.21652 9.83289 6.07454C9.83289 6.93256 9.56155 7.73191 9.09954 8.38459C9.43688 8.54592 9.80355 8.64126 10.1996 8.64126Z" fill="white"/>
</g>
</svg>
