<svg width="152" height="200" viewBox="0 0 152 200" fill="none" xmlns="http://www.w3.org/2000/svg">
<rect width="152" height="200" fill="#DEDEDE"/>
<g id="Login Seller">
<path d="M-9084 -2206C-9084 -2207.1 -9083.1 -2208 -9082 -2208H3904C3905.1 -2208 3906 -2207.1 3906 -2206V3083C3906 3084.1 3905.1 3085 3904 3085H-9082C-9083.1 3085 -9084 3084.1 -9084 3083V-2206Z" fill="#D8D8D8"/>
<g id="Seller page" clip-path="url(#clip0_17_269)">
<rect width="1523" height="797" transform="translate(-514.617 -198.812)" fill="#F9F9FB"/>
<g id="Frame 1000003836" clip-path="url(#clip1_17_269)">
<rect width="1009" height="676" transform="translate(-428.617 -119.812)" fill="white"/>
<g id="Group 37596">
<g id="Group 37595">
<g id="Group">
<g id="Group_2">
<path id="Vector" d="M117.183 16.5469H23.418V145.259H117.183V16.5469Z" fill="#F9FBFC"/>
<path id="Vector_2" d="M117.183 104.414H23.418V145.249H117.183V104.414Z" fill="#DFE3F7"/>
<path id="Vector_3" d="M112.623 0.914062H27.9787C23.9483 0.914062 20.6816 4.45935 20.6816 8.83044V153.796C20.6816 158.167 23.9483 161.712 27.9787 161.712H112.623C116.653 161.712 119.92 158.167 119.92 153.796V8.83044C119.92 4.45935 116.653 0.914062 112.623 0.914062ZM117.184 145.26H23.418V16.5475H117.184V145.26Z" fill="#407BFF"/>
<path id="Vector_4" d="M79.1428 10.4817H61.4659C60.8648 10.4817 60.377 9.99052 60.377 9.3854C60.377 8.78028 60.8648 8.28906 61.4659 8.28906H79.1428C79.7438 8.28906 80.2317 8.78028 80.2317 9.3854C80.2317 9.99052 79.7438 10.4817 79.1428 10.4817Z" fill="#79A3FF"/>
<path id="Vector_5" d="M75.2044 154.254C75.2044 156.98 73.0124 159.187 70.3043 159.187C67.5962 159.187 65.4043 156.98 65.4043 154.254C65.4043 151.527 67.5962 149.32 70.3043 149.32C73.0054 149.32 75.2044 151.527 75.2044 154.254Z" fill="#79A3FF"/>
</g>
<g id="Group_3">
<g id="XMLID_8_">
<g id="Group_4">
<path id="Vector_6" d="M53.7155 23.6875L50.2508 27.183H31.7324L35.1971 23.6875H53.7155Z" fill="#7382EF"/>
<path id="Vector_7" d="M53.7147 23.6875V42.3323L50.25 45.8206V27.183L53.7147 23.6875Z" fill="#4C5FE5"/>
<path id="Vector_8" d="M50.2508 27.1797H31.7324V45.8174H50.2508V27.1797Z" fill="#606BF1"/>
</g>
</g>
</g>
<g id="Group_5">
<g id="XMLID_7_">
<g id="Group_6">
<path id="Vector_9" d="M78.4842 54.3828V94.0288H78.4701L71.1094 101.447V61.8009L78.4701 54.3828H78.4842Z" fill="#E27171"/>
<path id="Vector_10" d="M39.1002 54.375H78.4844V54.3821H78.4702L71.1096 61.8002H31.7324L39.1002 54.3821V54.375Z" fill="#F49090"/>
<path id="Vector_11" d="M71.1095 61.7969H31.7324V101.443H71.1095V61.7969Z" fill="#EC827D"/>
</g>
</g>
</g>
<g id="Group_7">
<g id="XMLID_6_">
<g id="Group_8">
<path id="Vector_12" d="M81.2928 23.6875V42.3323L77.8281 45.8206V27.183L81.2928 23.6875Z" fill="#A0A3EA"/>
<path id="Vector_13" d="M81.2928 23.6875L77.8282 27.183H59.3027L62.7674 23.6875H81.2928Z" fill="#C5C8F9"/>
<path id="Vector_14" d="M77.8211 27.1797H59.3027V45.8174H77.8211V27.1797Z" fill="#B1B2F3"/>
</g>
</g>
</g>
<g id="Group_9">
<g id="XMLID_5_">
<g id="Group_10">
<path id="Vector_15" d="M108.861 23.6875L105.396 27.183H86.8848L90.3494 23.6875H108.861Z" fill="#FFDD88"/>
<path id="Vector_16" d="M108.868 23.6875V42.3323H108.861L105.396 45.8206V27.183L108.861 23.6875H108.868Z" fill="#EFC04D"/>
<path id="Vector_17" d="M105.396 27.1797H86.8848V45.8174H105.396V27.1797Z" fill="#FBD15B"/>
</g>
</g>
</g>
<g id="Group_11">
<g id="XMLID_4_">
<g id="Group_12">
<path id="Vector_18" d="M53.7155 108.656L50.2508 112.152H31.7324L35.1971 108.656H53.7155Z" fill="#C5C8F9"/>
<path id="Vector_19" d="M53.7147 108.656V135.452L50.25 138.941V112.152L53.7147 108.656Z" fill="#A0A3EA"/>
<path id="Vector_20" d="M50.2508 112.148H31.7324V138.937H50.2508V112.148Z" fill="#B1B2F3"/>
</g>
</g>
</g>
<g id="Group_13">
<g id="XMLID_3_">
<g id="Group_14">
<path id="Vector_21" d="M81.2928 108.656L77.8282 112.152H59.3027L62.7674 108.656H81.2928Z" fill="#5F5F93"/>
<path id="Vector_22" d="M81.2928 108.656V135.452L77.8281 138.941V112.152L81.2928 108.656Z" fill="#47477C"/>
<path id="Vector_23" d="M77.8211 112.148H59.3027V138.937H77.8211V112.148Z" fill="#56548C"/>
</g>
</g>
</g>
<g id="Group_15">
<g id="XMLID_2_">
<g id="Group_16">
<path id="Vector_24" d="M108.868 108.656V135.452H108.861L105.396 138.941V112.152L108.861 108.656H108.868Z" fill="#E27171"/>
<path id="Vector_25" d="M108.861 108.656L105.396 112.152H86.8848L90.3494 108.656H108.861Z" fill="#F49090"/>
<path id="Vector_26" d="M105.396 112.148H86.8848V138.937H105.396V112.148Z" fill="#EC827D"/>
</g>
</g>
</g>
<g id="Group_17">
<g id="XMLID_1_">
<g id="Group_18">
<path id="Vector_27" d="M101.331 54.9922H84.5312V57.2347H101.331V54.9922Z" fill="#A5B7C6"/>
<path id="Vector_28" d="M108.876 66.1016H84.5312V68.3441H108.876V66.1016Z" fill="#A5B7C6"/>
<path id="Vector_29" d="M108.876 71.6016H84.5312V73.8441H108.876V71.6016Z" fill="#A5B7C6"/>
<path id="Vector_30" d="M108.876 77.1016H84.5312V79.3441H108.876V77.1016Z" fill="#A5B7C6"/>
<path id="Vector_31" d="M108.876 82.6094H84.5312V84.8519H108.876V82.6094Z" fill="#A5B7C6"/>
<path id="Vector_32" d="M95.9223 89.2266H84.5312V91.4691H95.9223V89.2266Z" fill="#A5B7C6"/>
</g>
</g>
</g>
<path id="Vector_33" d="M50.252 45.8229H55.3288L58.7864 42.3203H53.7096L50.252 45.8229Z" fill="#E6E7E8"/>
<path id="Vector_34" d="M50.2656 138.948H55.3424L58.8 135.445H53.7232L50.2656 138.948Z" fill="#A2A9F4"/>
<path id="Vector_35" d="M77.8496 138.948H82.9264L86.377 135.445H81.3001L77.8496 138.948Z" fill="#A2A9F4"/>
<path id="Vector_36" d="M105.439 138.948H110.516L113.967 135.445H108.89L105.439 138.948Z" fill="#A2A9F4"/>
<path id="Vector_37" d="M77.9121 45.8229H82.9889L86.4395 42.3203H81.3626L77.9121 45.8229Z" fill="#E6E7E8"/>
<path id="Vector_38" d="M71.0957 101.441H81.8574L89.1757 94.0156L78.4847 94.0299L71.0957 101.441Z" fill="#E6E7E8"/>
<path id="Vector_39" d="M105.439 45.8229H110.516L113.967 42.3203H108.89L105.439 45.8229Z" fill="#E6E7E8"/>
</g>
<path id="Vector_40" style="mix-blend-mode:multiply" d="M71.1112 189.289C110.144 189.289 141.787 186.51 141.787 183.082C141.787 179.654 110.144 176.875 71.1112 176.875C32.0781 176.875 0.435547 179.654 0.435547 183.082C0.435547 186.51 32.0781 189.289 71.1112 189.289Z" fill="url(#paint0_radial_17_269)" fill-opacity="0.8"/>
</g>
<g id="Group 37594">
<g id="Group_19">
<path id="Vector_41" d="M137.041 43.4062C137.041 43.4062 149.913 56.7448 150.574 62.1631C151.243 67.5892 143.979 76.0724 143.979 76.0724L137.041 43.4062Z" fill="#6292E8"/>
<path id="Vector_42" d="M130.128 191.742C130.128 191.742 129.653 199.389 128.183 199.498C127.989 199.514 120.716 199.514 120.716 199.514L111.438 199.459C111.438 199.459 111.5 197.215 114.206 196.738C116.921 196.261 121.455 194.346 123.104 190.741C124.839 186.949 130.128 191.742 130.128 191.742Z" fill="#163560"/>
<path id="Vector_43" d="M150.792 191.742C150.792 191.742 150.317 199.389 148.847 199.498C148.653 199.514 141.381 199.514 141.381 199.514L132.102 199.459C132.102 199.459 132.164 197.215 134.878 196.738C137.593 196.261 142.127 194.346 143.776 190.741C145.503 186.949 150.792 191.742 150.792 191.742Z" fill="#163560"/>
<path id="Vector_44" d="M119.852 109.564C119.852 109.564 122.278 125.162 131.332 152.855C140.385 180.549 141.614 192.543 141.614 192.543L151.329 192.269C151.329 192.269 151.414 162.003 147.237 148.078C143.068 134.153 146.335 97.875 146.335 97.875L119.852 109.564Z" fill="#163560"/>
<path id="Vector_45" d="M115.13 98.7266C115.13 98.7266 114.788 122.237 118.832 151.103C122.877 179.97 121.508 192.221 121.508 192.221L131.199 192.542C131.199 192.542 136.994 163.668 135.329 149.219C133.665 134.77 143.263 99.6413 143.263 99.6413L115.13 98.7266Z" fill="#1C468A"/>
<path id="Vector_46" d="M133.891 43.7122L128.727 47.1133L121.268 45.7138C121.369 45.1117 121.866 42.602 122.31 40.3267C122.333 40.1938 122.364 40.0609 122.388 39.928C122.769 37.9968 123.103 36.3314 123.103 36.3314L130.072 33.2431L132.67 32.0938C132.662 32.1328 132.468 34.2439 132.444 34.5488C131.954 39.9984 133.891 43.7122 133.891 43.7122Z" fill="#FFB27D"/>
<path id="Vector_47" d="M123.174 41.9965C123.322 41.934 132.158 39.3147 133.122 39.6275C134.079 39.948 134.654 41.8167 134.654 41.8167L120.195 45.1005C120.188 45.1083 121.331 42.7784 123.174 41.9965Z" fill="#6292E8"/>
<path id="Vector_48" d="M146.981 101.639C145.48 108.512 120.536 109.325 114.112 103.086C113.381 102.374 113.342 99.067 113.622 94.6026C114.159 85.8848 115.893 72.7808 115.963 66.0803C115.994 62.8434 116.438 59.5361 117.029 56.5337C118.281 50.1303 120.194 45.1029 120.194 45.1029C120.194 45.1029 132.374 41.1467 134.653 41.8191C145.636 45.0638 148.482 94.7667 146.981 101.639Z" fill="#739AF0"/>
<path id="Vector_49" d="M113.623 94.6011C114.16 85.8833 115.894 72.7793 115.964 66.0788C115.995 62.8419 116.439 59.5346 117.03 56.5323L124.356 55.2344C124.356 55.2344 131.52 84.6558 113.623 94.6011Z" fill="#6292E8"/>
<path id="Vector_50" d="M117.589 82.4582C117.589 82.4582 118.086 83.6623 117.036 84.4676C115.986 85.2729 115.31 86.5786 115.551 87.5325C115.792 88.4864 118.094 90.0423 118.887 89.7921C119.689 89.5419 121.306 88.2831 121.135 87.7827C120.964 87.2823 122.224 83.3652 120.28 81.8562C118.335 80.3472 117.589 82.4582 117.589 82.4582Z" fill="#FFB27D"/>
<path id="Vector_51" d="M125.787 43.3438C125.787 43.3438 118.639 44.6885 112.945 53.1248C107.252 61.5611 103.503 67.8316 104.553 70.8731C105.603 73.9145 115.162 84.4618 116.811 84.4618C118.46 84.4618 121.12 83.2577 121.268 80.5447C121.268 80.5447 114.532 70.404 115.862 68.8793C116.43 68.2304 124.604 61.5611 125.771 64.5713C127.7 69.5595 125.787 43.3438 125.787 43.3438Z" fill="#739AF0"/>
<path id="Vector_52" d="M131.924 34.635C130.392 37.2386 124.691 39.4982 122.311 40.327C122.334 40.194 122.365 40.0611 122.388 39.9282C122.769 37.997 123.104 36.3316 123.104 36.3316L130.073 33.2433C131.613 33.2198 132.554 33.5639 131.924 34.635Z" fill="#FCA56B"/>
<path id="Vector_53" d="M120.475 35.9114C120.475 35.9114 131.698 39.4298 133.775 32.3696C135.851 25.3093 138.69 21.0091 131.613 18.4602C124.535 15.9114 122.341 18.1944 121.081 20.3836C119.821 22.565 117.612 34.809 120.475 35.9114Z" fill="#FFB27D"/>
<path id="Vector_54" d="M121.524 19.6968C121.524 19.6968 122.239 27.9142 123.927 27.5545C125.615 27.1949 127.147 26.9368 126.906 29.4075C126.657 31.886 124.316 34.7476 129.527 35.1855C134.738 35.6233 142.228 22.1128 140.797 19.5561C136.659 12.1831 115.55 10.6976 121.524 19.6968Z" fill="#163560"/>
</g>
</g>
</g>
</g>
</g>
<path d="M-9082 -2207H3904V-2209H-9082V-2207ZM3905 -2206V3083H3907V-2206H3905ZM3904 3084H-9082V3086H3904V3084ZM-9083 3083V-2206H-9085V3083H-9083ZM-9082 3084C-9082.55 3084 -9083 3083.55 -9083 3083H-9085C-9085 3084.66 -9083.66 3086 -9082 3086V3084ZM3905 3083C3905 3083.55 3904.55 3084 3904 3084V3086C3905.66 3086 3907 3084.66 3907 3083H3905ZM3904 -2207C3904.55 -2207 3905 -2206.55 3905 -2206H3907C3907 -2207.66 3905.66 -2209 3904 -2209V-2207ZM-9082 -2209C-9083.66 -2209 -9085 -2207.66 -9085 -2206H-9083C-9083 -2206.55 -9082.55 -2207 -9082 -2207V-2209Z" fill="black" fill-opacity="0.1"/>
</g>
<defs>
<radialGradient id="paint0_radial_17_269" cx="0" cy="0" r="1" gradientUnits="userSpaceOnUse" gradientTransform="translate(70.5173 183.464) rotate(-0.193827) scale(112.977 9.97646)">
<stop stop-color="#CFCED1"/>
<stop offset="0.03" stop-color="#D3D2D5"/>
<stop offset="0.19" stop-color="#E7E6E8"/>
<stop offset="0.38" stop-color="#F4F4F5"/>
<stop offset="0.61" stop-color="#FDFDFD"/>
<stop offset="1" stop-color="white"/>
</radialGradient>
<clipPath id="clip0_17_269">
<rect width="1523" height="797" fill="white" transform="translate(-514.617 -198.812)"/>
</clipPath>
<clipPath id="clip1_17_269">
<rect width="1009" height="676" fill="white" transform="translate(-428.617 -119.812)"/>
</clipPath>
</defs>
</svg>
