<svg width="17" height="17" viewBox="0 0 17 17" fill="none" xmlns="http://www.w3.org/2000/svg">
<g id="Frame 1000004415" clip-path="url(#clip0_966_5078)">
<path id="Vector" d="M15.9314 6.26905L15.1307 2.93649C14.9629 2.25016 14.3681 1.77734 13.6741 1.77734H11.9888H10.4559H9.14426H7.61906H6.30739H4.76694H3.0816C2.39526 1.77734 1.79281 2.25778 1.63266 2.93649L0.831935 6.26905C0.648911 7.0469 0.816683 7.84 1.30475 8.46534C1.36575 8.54922 1.44964 8.61023 1.51827 8.68649V13.9789C1.51827 14.8178 2.20461 15.5041 3.04347 15.5041H13.7199C14.5587 15.5041 15.2451 14.8178 15.2451 13.9789V8.68649C15.3137 8.61786 15.3976 8.54922 15.4586 8.47296C15.9466 7.84763 16.122 7.0469 15.9314 6.26905ZM4.58392 3.30254L4.14161 7.00877C4.08061 7.50446 3.68405 7.87813 3.21887 7.87813C2.8452 7.87813 2.60879 7.65698 2.50965 7.51971C2.31138 7.26806 2.24274 6.94014 2.319 6.62747L3.0816 3.30254H4.58392ZM13.6512 3.29492L14.452 6.62747C14.5282 6.94776 14.4596 7.26806 14.2613 7.51971C14.1545 7.65698 13.9258 7.87813 13.5445 7.87813C13.0793 7.87813 12.6751 7.50446 12.6217 7.00877L12.1794 3.30254L13.6512 3.29492ZM11.0584 6.74949C11.0965 7.0469 11.005 7.34432 10.8067 7.56547C10.6313 7.76374 10.3873 7.87813 10.0746 7.87813C9.56369 7.87813 9.14426 7.4282 9.14426 6.87913V3.30254H10.639L11.0584 6.74949ZM7.61906 6.87913C7.61906 7.4282 7.19964 7.87813 6.63531 7.87813C6.37603 7.87813 6.13962 7.76374 5.9566 7.56547C5.76595 7.34432 5.67444 7.0469 5.70494 6.74949L6.12437 3.30254H7.61906V6.87913ZM12.9573 13.9789H3.80607C3.38664 13.9789 3.04347 13.6358 3.04347 13.2163V9.38045C3.10448 9.38808 3.15786 9.40333 3.21887 9.40333C3.88233 9.40333 4.48478 9.1288 4.92709 8.67886C5.38465 9.13642 5.99473 9.40333 6.68869 9.40333C7.35215 9.40333 7.94698 9.1288 8.38929 8.69412C8.83922 9.1288 9.4493 9.40333 10.1356 9.40333C10.7762 9.40333 11.3863 9.13642 11.8439 8.67886C12.2862 9.1288 12.8886 9.40333 13.5521 9.40333C13.6131 9.40333 13.6665 9.38808 13.7275 9.38045V13.2163C13.7199 13.6358 13.3767 13.9789 12.9573 13.9789Z" fill="white"/>
</g>
<defs>
<clipPath id="clip0_966_5078">
<rect width="16" height="16" fill="white" transform="translate(0.382812 0.640625)"/>
</clipPath>
</defs>
</svg>
