<svg width="16" height="17" viewBox="0 0 16 17" fill="none" xmlns="http://www.w3.org/2000/svg">
<g id="Frame 427318678">
<path id="Vector" fill-rule="evenodd" clip-rule="evenodd" d="M7.09876 14.5293C7.94474 15.5098 9.22342 16.135 10.6534 16.135C13.1973 16.135 15.2627 14.1564 15.2627 11.7193C15.2627 9.28226 13.1973 7.30366 10.6534 7.30366C9.91237 7.30366 9.21189 7.47155 8.59132 7.7697C7.99314 7.45755 7.30741 7.28028 6.57836 7.28028C6.04133 7.28028 5.48807 7.28028 4.95104 7.28028C2.62338 7.28028 0.736328 9.08791 0.736328 11.3179C0.736328 12.2531 0.736328 12.9108 0.736328 13.4589C0.736328 14.05 1.23662 14.5293 1.8537 14.5293H7.09876ZM10.6534 8.37408C12.5806 8.37408 14.1453 9.87303 14.1453 11.7193C14.1453 13.5656 12.5806 15.0646 10.6534 15.0646C8.72621 15.0646 7.16152 13.5656 7.16152 11.7193C7.16152 9.87303 8.72621 8.37408 10.6534 8.37408ZM10.0947 9.51169C9.85056 9.57463 9.62555 9.69795 9.44359 9.87226C9.17059 10.1338 9.01719 10.4886 9.01719 10.8585V10.8597C9.01719 11.2297 9.17059 11.5845 9.44359 11.846C9.71673 12.1077 10.0871 12.2546 10.4731 12.2546H10.8336C10.9234 12.2546 11.0095 12.2888 11.0731 12.3495C11.1365 12.4104 11.1721 12.4929 11.1721 12.579V12.5801C11.1721 12.6662 11.1365 12.7486 11.0731 12.8095C11.0095 12.8703 10.9234 12.9045 10.8336 12.9045H10.2933C10.2056 12.9045 10.1346 12.8364 10.1346 12.7525C10.1346 12.431 9.85874 12.2158 9.57594 12.2158C9.25225 12.2158 9.01719 12.4815 9.01719 12.7525C9.01719 13.3629 9.48422 13.8689 10.0947 13.9602V14.1279C10.0947 14.4233 10.3451 14.6632 10.6534 14.6632C10.9618 14.6632 11.2121 14.4233 11.2121 14.1279V13.927C11.4563 13.864 11.6813 13.7407 11.8631 13.5664C12.1363 13.3049 12.2897 12.9501 12.2897 12.5801V12.579C12.2897 12.209 12.1363 11.8542 11.8631 11.5927C11.5901 11.331 11.2197 11.1841 10.8336 11.1841H10.4731C10.3834 11.1841 10.2972 11.1499 10.2338 11.0891C10.1702 11.0282 10.1346 10.9458 10.1346 10.8597V10.8585C10.1346 10.7725 10.1702 10.69 10.2338 10.6291C10.2972 10.5684 10.3834 10.5342 10.4731 10.5342H11.0135C11.1012 10.5342 11.1721 10.6145 11.1721 10.6862C11.1721 10.8147 11.2346 10.9726 11.3318 11.0614C11.4814 11.1981 11.6137 11.2291 11.802 11.2189C11.9902 11.2085 12.2897 11.0141 12.2897 10.6862C12.2897 10.0757 11.8225 9.56975 11.2121 9.47842V9.31078C11.2121 9.01533 10.9618 8.77551 10.6534 8.77551C10.3451 8.77551 10.0947 9.01533 10.0947 9.31078V9.51169ZM7.5131 8.48815C7.2181 8.39887 6.90406 8.3507 6.57836 8.3507C6.04133 8.3507 5.48807 8.3507 4.95104 8.3507C3.24046 8.3507 1.8537 9.67919 1.8537 11.3179V13.4589H6.41611C6.17663 12.925 6.04401 12.3369 6.04401 11.7193C6.04401 10.4443 6.60947 9.29473 7.5131 8.48815ZM5.7647 1.14844C4.22294 1.14844 2.97121 2.34757 2.97121 3.82469C2.97121 5.30167 4.22294 6.50081 5.7647 6.50081C7.30647 6.50081 8.5582 5.30167 8.5582 3.82469C8.5582 2.34757 7.30647 1.14844 5.7647 1.14844ZM5.7647 2.21899C6.68979 2.21899 7.44083 2.93847 7.44083 3.82469C7.44083 4.71091 6.68979 5.43039 5.7647 5.43039C4.83961 5.43039 4.08858 4.71091 4.08858 3.82469C4.08858 2.93847 4.83961 2.21899 5.7647 2.21899Z" fill="white"/>
</g>
</svg>
